# xmcd CD database file generated by Grip 2.95
# 
# Track frame offsets:
#       150
#       1660
#       24242
#       43745
#       64400
#       83725
#       100030
#       121645
#       141650
#       160667
#       179537
#       199085
#       227492
# 
# Disc length: 3407 seconds
# 
# Revision: 3
# Processed by: cddbd v1.4PL0 Copyright (c) Steve Scherf et al.
# Submitted via: Grip 2.95
# 
DISCID=9d0d4d0d
DTITLE=이수영 - Made in winter
DYEAR=1900
DGENRE=
TTITLE0=Made in winter
TTITLE1=Farewell 블루스
TTITLE2=그리고 사랑해
TTITLE3=혼자' 겨울
TTITLE4=차라리
TTITLE5=아니기를
TTITLE6=상처
TTITLE7=사랑은 끝났어
TTITLE8=길
TTITLE9=돌아오면
TTITLE10=그리고 사랑해(acoustic piano instrumental version)
TTITLE11=Farewell 블루스(nylon guitar instrumental version)
TTITLE12=Data Track
EXTD=
EXTT0=
EXTT1=
EXTT2=
EXTT3=
EXTT4=
EXTT5=
EXTT6=
EXTT7=
EXTT8=
EXTT9=
EXTT10=
EXTT11=
EXTT12=
PLAYORDER=
